<svg width="613" height="513" viewBox="0 0 613 513" fill="none" xmlns="http://www.w3.org/2000/svg">
<path d="M366.087 156.076C369.739 158.757 373.361 161.48 376.94 164.258C379.696 166.242 382.451 168.225 385.289 170.269C400.235 184.565 419.176 206.862 419.865 228.65C419.777 231.491 419.777 231.491 419.688 234.39C419.688 237.696 419.688 241.002 419.688 244.409C420.946 245.664 422.205 246.92 423.501 248.214C437.23 261.971 434.179 294.592 434.215 312.871C434.13 358.856 419.977 394.16 398.314 434.099C397.432 434.099 396.551 434.099 395.642 434.099C395.492 429.021 395.492 429.021 395.34 423.84C395.164 419.3 394.986 414.761 394.807 410.221C394.747 408.001 394.687 405.782 394.625 403.495C393.411 375.147 383.952 347.163 363.196 327.012C351.593 317.623 340.194 310.927 326.178 305.858C326.178 304.094 326.178 302.331 326.178 300.514C328.603 299.082 331.027 297.649 333.525 296.173C344.303 289.226 349.192 280.603 352.895 268.454C354.896 255.222 355.295 243.724 347.552 232.386C345.788 230.182 344.025 227.978 342.208 225.707C342.208 223.943 342.208 222.18 342.208 220.363C324.268 211.061 309.129 206.403 288.774 209.677C275.173 216.332 266.004 225.433 259.386 239.065C257.225 254.617 257.129 269.033 263.894 283.315C270.001 289.753 276.437 295.075 283.431 300.514C283.431 302.278 283.431 304.041 283.431 305.858C281.75 306.574 280.07 307.29 278.338 308.028C247.9 321.964 231.682 341.614 219.31 372.65C215.54 385.579 216.342 398.877 216.472 412.225C216.484 414.585 216.496 416.946 216.508 419.379C216.54 425.176 216.587 430.973 216.639 436.771C190.872 413.947 180.857 365.413 176.563 332.575C174.737 302.137 175.412 273.964 187.5 245.557C190.425 238.758 190.425 238.758 190.256 229.714C193.255 202.355 217.606 175.588 238.012 158.914C245.727 153.593 253.501 149.364 262.057 145.556C263.948 144.705 265.839 143.855 267.787 142.978C300.447 130.208 337.157 137.291 366.087 156.076Z" fill="#324F37"/>
<path d="M0.231158 287.156C17.1868 286.576 33.1542 286.873 49.6888 290.934C56.3835 292.662 56.3835 292.662 63.5691 293.23C71.6163 294.479 76.4328 295.713 83.0537 300.514C87.9035 311.68 90.0546 323.178 92.4568 335.04C105.599 391.856 145.319 441.516 193.428 473.006C216.439 487.188 236.336 496.678 263.153 501.497C265.437 502.179 267.72 502.861 270.072 503.563C270.954 506.208 271.836 508.853 272.744 511.578C180.919 514.407 180.919 514.407 144.503 498.22C142.656 497.418 140.81 496.617 138.908 495.791C116.373 485.795 96.4185 474.342 77.7103 458.144C75.0654 456.216 72.4204 454.287 69.6953 452.3C29.9177 418.221 6.96647 361.914 0.231158 311.201C-0.127897 303.125 -0.0216645 295.246 0.231158 287.156Z" fill="#96A982"/>
<path d="M598.524 286.988C601.083 287.012 603.642 287.037 606.278 287.061C608.182 287.092 610.087 287.123 612.049 287.155C607.704 352.184 583.634 412.84 534.904 457.476C482.04 501.078 420.101 516.483 352.895 511.578C348.428 510.759 343.97 509.888 339.536 508.906C348.512 502.922 357.689 499.654 367.756 496.049C424.944 474.913 473.512 439.131 499.984 382.752C504.643 372.358 508.972 361.854 513.196 351.276C514.638 347.954 514.638 347.954 516.108 344.565C519.251 335.972 521.039 327.339 522.881 318.381C523.577 315.03 524.273 311.679 524.99 308.226C525.506 305.681 526.023 303.136 526.555 300.514C532.395 298.772 538.24 297.051 544.088 295.337C547.343 294.377 550.597 293.416 553.95 292.426C568.891 288.546 583.107 286.798 598.524 286.988Z" fill="#D8A277"/>
<path d="M513.197 185.631C520.091 208.718 522.592 230.043 522.38 254.094C522.358 257.37 522.336 260.646 522.313 264.021C521.028 333.577 494.71 394.4 445.225 443.477C421.69 465.972 393.832 481.304 363.582 492.876C361.818 491.995 360.055 491.113 358.238 490.205C363.528 487.56 363.528 487.56 368.925 484.861C368.925 483.098 368.925 481.335 368.925 479.518C371.968 476.383 375.027 473.263 378.151 470.209C417.86 431.301 441.339 373.101 441.938 317.515C441.924 315.211 441.91 312.907 441.896 310.533C441.89 308.105 441.885 305.677 441.879 303.176C441.577 282.699 438.353 264.208 433.046 244.409C432.121 239.963 431.219 235.512 430.374 231.05C447.775 216.813 465.178 204.854 485.311 194.815C487.155 193.891 488.999 192.966 490.899 192.013C498.796 188.194 504.316 185.631 513.197 185.631Z" fill="#D8A278"/>
<path d="M99.0841 185.631C129.734 195.351 154.351 211.196 179.235 231.05C178.085 238.334 176.917 245.574 175.231 252.755C165.575 294.924 164.376 348.546 181.907 388.68C182.652 390.467 183.398 392.254 184.166 394.095C200.218 432.274 221.142 461.648 251.371 490.205C248.726 491.527 248.726 491.527 246.027 492.876C239.234 490.104 232.849 487.174 226.324 483.859C224.401 482.884 222.479 481.909 220.498 480.904C160.391 449.526 119.144 398.598 98.8956 334.406C93.3377 316.017 88.7868 298.436 88.3973 279.141C88.3323 277.257 88.2673 275.374 88.2003 273.433C87.249 244.121 87.7277 216.607 96.4124 188.303C97.294 187.421 98.1757 186.54 99.0841 185.631Z" fill="#9CAC85"/>
<path d="M324.362 3.30902C341.607 11.6364 353.848 22.0006 363.582 38.6881C369.468 57.5925 368.119 76.8484 359.303 94.5119C349.685 108.993 334.604 121.264 318.163 126.854C300.013 129.307 284.932 127.212 270.073 116.167C256.522 103.366 247.061 91.6023 245.13 72.6061C244.773 39.958 244.773 39.958 256.714 25.3296C276.579 5.54658 295.595 -6.0862 324.362 3.30902Z" fill="#2E4C35"/>
<path d="M414.344 241.737C422.152 246.052 426.897 249.742 429.515 258.462C440.778 324.364 429.673 376.282 398.314 434.099C397.432 434.099 396.55 434.099 395.642 434.099C395.542 430.714 395.442 427.328 395.339 423.84C395.164 419.3 394.986 414.761 394.807 410.221C394.747 408.001 394.686 405.782 394.624 403.495C393.7 381.904 388.501 363.493 376.94 345.098C374.956 341.89 374.956 341.89 372.932 338.617C369.12 332.869 365.113 327.355 360.91 321.888C374.504 291.821 392.892 266.648 414.344 241.737Z" fill="#8E7A51"/>
<path d="M288.774 404.711C296.789 408.384 296.789 408.384 302.133 412.726C302.133 414.489 302.133 416.252 302.133 418.069C304.778 415.865 307.423 413.661 310.148 411.39C321.476 403.341 328.493 402.72 342.208 404.711C349.716 409.503 354.256 412.776 358.238 420.741C359.967 431.287 360.285 440.81 355.316 450.463C351.227 456.032 346.909 461.098 342.208 466.16C339.899 468.691 339.899 468.691 337.543 471.273C328.3 480.949 318.891 488.588 307.476 495.548C281.965 483.851 263.78 464.261 251.371 439.443C250.317 428.271 250.167 422.586 256.38 413.06C266.121 403.319 275.498 403.238 288.774 404.711Z" fill="#929967"/>
</svg>
